<?xml version="1.0" encoding="utf-8"?>
<!-- Generator: Adobe Illustrator 26.0.1, SVG Export Plug-In . SVG Version: 6.00 Build 0)  -->
<svg version="1.1" id="レイヤー_2_00000033369004100583694070000013383784781028386223_"
	 xmlns="http://www.w3.org/2000/svg" xmlns:xlink="http://www.w3.org/1999/xlink" x="0px" y="0px" viewBox="0 0 471.99 260.38"
	 style="enable-background:new 0 0 471.99 260.38;" xml:space="preserve">
<style type="text/css">
	.st0{fill:#FFFFFF;}
</style>
<g>
	<path class="st0" d="M194.08,62.95h-25.84h-2.69C156.16,26.74,123.26,0,84.12,0C37.66,0,0,37.66,0,84.12v157.27
		c0,10.49,8.5,18.99,18.99,18.99l0,0c10.49,0,18.99-8.5,18.99-18.99v-86.94c13.25,8.71,29.09,13.79,46.13,13.79
		s32.88-5.08,46.13-13.79v86.93c0,10.49,8.5,18.99,18.99,18.99s18.99-8.5,18.99-18.99V105.3h25.84c11.7,0,21.18-9.48,21.18-21.18
		l0,0C215.25,72.43,205.77,62.95,194.08,62.95z M84.13,130.26C58.65,130.26,38,109.61,38,84.13S58.65,38,84.13,38
		c25.41,0,46.02,20.54,46.13,45.93v0.41C130.14,109.72,109.54,130.26,84.13,130.26z"/>
	<path class="st0" d="M470.12,231.92l-37.23-77.63c22.73-15.06,37.73-40.86,37.73-70.17C470.62,37.66,432.96,0,386.5,0
		c-39.14,0-72.04,26.74-81.43,62.95h-2.69h-24.61c-11.7,0-21.18,9.48-21.18,21.18l0,0c0,11.7,9.48,21.18,21.18,21.18h24.61V241.4
		c0,10.49,8.5,18.99,18.99,18.99l0,0c10.49,0,18.99-8.5,18.99-18.99v-86.94c13.25,8.71,29.09,13.79,46.13,13.79
		c3.6,0,7.14-0.25,10.62-0.69c0.01,0.02,0.02,0.05,0.03,0.07l38.71,80.72c4.54,9.46,15.88,13.45,25.34,8.91l0,0
		C470.67,252.73,474.66,241.38,470.12,231.92z M340.37,84.13c0-25.48,20.65-46.13,46.13-46.13c25.48,0,46.13,20.65,46.13,46.13
		s-20.65,46.13-46.13,46.13C361.03,130.26,340.37,109.61,340.37,84.13z"/>
</g>
</svg>
