<?xml version="1.0" encoding="utf-8"?>
<!-- Generator: Adobe Illustrator 26.0.1, SVG Export Plug-In . SVG Version: 6.00 Build 0)  -->
<svg version="1.1" id="レイヤー_1" xmlns="http://www.w3.org/2000/svg" xmlns:xlink="http://www.w3.org/1999/xlink" x="0px"
	 y="0px" viewBox="0 0 500 500" style="enable-background:new 0 0 500 500;" xml:space="preserve">
<style type="text/css">
	.st0{fill:#FFFFFF;}
</style>
<g>
	<path class="st0" d="M181.24,40c37.68,0,73.1,14.67,99.74,41.31c26.64,26.64,41.31,62.06,41.31,99.74s-14.67,73.1-41.31,99.74
		c-26.64,26.64-62.06,41.31-99.74,41.31s-73.1-14.67-99.74-41.31c-26.64-26.64-41.31-62.06-41.31-99.74s14.67-73.1,41.31-99.74
		C108.15,54.67,143.57,40,181.24,40 M181.24,0C81.25,0,0.19,81.06,0.19,181.05s81.06,181.05,181.05,181.05
		c99.99,0,181.05-81.06,181.05-181.05S281.24,0,181.24,0L181.24,0z"/>
</g>
<rect x="365.74" y="244.15" transform="matrix(0.7071 -0.7071 0.7071 0.7071 -159.778 385.7383)" class="st0" width="40" height="283.18"/>
</svg>
