<?xml version="1.0" encoding="utf-8"?>
<!-- Generator: Adobe Illustrator 26.0.1, SVG Export Plug-In . SVG Version: 6.00 Build 0)  -->
<svg version="1.1" id="レイヤー_1" xmlns="http://www.w3.org/2000/svg" xmlns:xlink="http://www.w3.org/1999/xlink" x="0px"
	 y="0px" viewBox="0 0 500 500" style="enable-background:new 0 0 500 500;" xml:space="preserve">
<style type="text/css">
	.st0{fill:#FFFFFF;}
</style>
<g>
	<path class="st0" d="M129.78,383.4c21.12,0,38.3,17.18,38.3,38.3S150.9,460,129.78,460s-38.3-17.18-38.3-38.3
		S108.66,383.4,129.78,383.4 M129.78,343.4c-43.24,0-78.3,35.06-78.3,78.3c0,43.24,35.06,78.3,78.3,78.3s78.3-35.06,78.3-78.3
		C208.08,378.46,173.02,343.4,129.78,343.4L129.78,343.4z"/>
</g>
<g>
	<path class="st0" d="M421.7,383.4c21.12,0,38.3,17.18,38.3,38.3S442.82,460,421.7,460s-38.3-17.18-38.3-38.3
		S400.58,383.4,421.7,383.4 M421.7,343.4c-43.24,0-78.3,35.06-78.3,78.3c0,43.24,35.06,78.3,78.3,78.3c43.24,0,78.3-35.06,78.3-78.3
		C500,378.46,464.94,343.4,421.7,343.4L421.7,343.4z"/>
</g>
<rect x="51.48" transform="matrix(-1 -1.224647e-16 1.224647e-16 -1 142.9629 322.2848)" class="st0" width="40" height="322.28"/>
<rect x="460" y="155.12" transform="matrix(-1 -1.224647e-16 1.224647e-16 -1 960 477.4097)" class="st0" width="40" height="167.16"/>
<rect x="255.74" y="78.03" transform="matrix(6.123234e-17 -1 1 6.123234e-17 -26.5441 578.0255)" class="st0" width="40" height="448.52"/>
<rect x="268.83" y="-74.93" transform="matrix(0.1852 -0.9827 0.9827 0.1852 101.9762 394.7639)" class="st0" width="40.41" height="421.63"/>
<rect x="25.74" y="-26.1" transform="matrix(6.123234e-17 -1 1 6.123234e-17 26.0976 65.3839)" class="st0" width="40" height="91.48"/>
</svg>
